<?xml version="1.0" encoding="utf-8"?>
<!-- Generator: Adobe Illustrator 26.1.0, SVG Export Plug-In . SVG Version: 6.00 Build 0)  -->
<svg version="1.1" id="Layer_1" xmlns="http://www.w3.org/2000/svg" xmlns:xlink="http://www.w3.org/1999/xlink" x="0px" y="0px"
	 viewBox="0 0 577.9 637" style="enable-background:new 0 0 577.9 637;" xml:space="preserve">
<style type="text/css">
	.st0{fill-rule:evenodd;clip-rule:evenodd;}
</style>
<g id="_x2022_-AP_x2F_1.Atoms_x2F_6.Logo_x2F_desktop_x2F_NBi21-white">
	<path id="Combined-Shape" class="st0" d="M289,0c92.9,0,189.3,7.9,287.1,24.8c1.5,39.2,3.1,99.9,0.3,151.3
		c-6.2,114.7-31.5,203.7-79.5,280.2C449.1,532.5,375,598.1,289,637c-86-38.9-160.1-104.5-208-180.7C33,379.8,7.7,290.8,1.5,176.1
		C-1.3,124.7,0.4,64,1.8,24.8C99.7,7.9,196.1,0,289,0z M289,11.1c-91.6,0-184.5,7.8-276.4,23.1c-2,58.2-2,104.5,0,141.3
		c6.1,112.7,30.8,200.1,77.8,274.9C137.3,525.2,207.7,587,289,624.8c81.3-37.9,151.7-99.6,198.6-174.4
		c47-74.8,71.7-162.2,77.8-274.9c2-36.8,2-83.1,0-141.3C473.5,18.8,380.5,11.1,289,11.1z M288.2,346c0,0,1.8,10.7,2.4,13.9
		c0.3,1.8,0.4,2.2-0.1,4c-1.4,5.6-8.1,34.9-13.5,64.9l-0.8,4.7c-2.2,12.7-4.1,25.2-5.2,36c-0.6,6.1-0.4,7.6,1.2,13
		c4.6,15.3,21.5,55.3,24.7,62.6c0.4,0.8,0.6,1.7,0.7,2.5l0,0l1.2,9.4c-5.4-8.2-34.8-62.3-46.4-92.2c-1.4-3.5-1.6-5.3-0.1-11.8
		C260.3,418.6,282,360.2,288.2,346z M245.3,262.9c0,0,2.3,7.3,4.4,15.3l0.8,2.8c1.4,5.2,2.6,10.3,3,13.5c0.4,3.1,0.4,4-0.8,6.9
		c-2.7,7.1-7.6,18.6-12.9,30.4l-2.3,5c-6.5,14.3-13,28-16.2,34c-1.6,2.9-3,4.9-6,7.8c-6.7,6.9-19.6,19.8-27.6,27.1
		c-2.9,2.6-3.7,4.9-4.3,8.3c-0.9,5.5-1.9,14.8-2.2,19.6c-0.2,4.2,0.5,6.2,2.8,10.4c14.1,25.1,61,82.8,74.3,94.9
		c1,0.9,1.7,1.5,3.7,2.8c2,1.3,8.4,5.5,8.4,5.5c0.3,0.2,0.5,0.4,0.6,0.7l0,0l2.3,4.1c0,0-0.2-0.1-0.6-0.3l-1-0.5
		c-0.8-0.4-1.9-0.9-3.1-1.5l-3-1.5c-4.6-2.3-10-5.1-12.9-6.6c-1.2-0.6-2.3-1.4-3.3-2.2c-15.6-13-63.6-69.2-77.7-92.6
		c-3.5-5.9-3.9-7.8-3.4-13.3c0.9-10.3,2.3-23.3,3.5-29c0.7-3.4,1.5-5.4,4.1-8.5c8.8-10.2,19.6-23.6,30.1-37.4l3.7-4.9
		c15.9-21.1,30.5-42.3,36-53.1c1.3-2.5,1.4-3.3,1.4-5.6c0.1-6.7-2.1-19.8-2.6-23.1c-0.1-0.5-0.1-1-0.1-1.6l0,0L245.3,262.9z
		 M376.2,250.3l4.1,1.8c1.2,0.5,2.3,1.3,3.2,2.2c24.9,26,44.7,52.9,48.7,60c0.8,1.4,1.3,2.7,1.5,4.3c4.5,37.9,0.6,78-8.5,112.9
		c-0.8,3.1-1.7,4.8-4.8,7c-9.7,7.3-24.3,19-38.7,31l-4.6,3.8c-17.4,14.4-34,28.6-41,35.1c-1.8,1.6-3.3,3.5-4.6,5.5
		c-3.3,5.4-8.3,14.6-10.8,19.2l-0.7,1.3c-0.5,0.9-0.8,1.5-0.8,1.5c-3.3-7.2-10.4-24.6-12.9-31.7c-0.8-2.3-0.9-3.5-0.1-6.6
		c4-14.6,22.9-57.2,26.6-64.9l0,0l0,3.1c0,0.5-0.1,0.9-0.2,1.3c-1.7,5-11.8,38.6-13.9,53.1c-0.5,3.2-0.4,4.1,0,7.3
		c0.9,6.8,5,19.2,5,19.2s2.4-5,4.6-8.4c1.1-1.7,1.8-2.5,3.6-4.2c9.1-9,24.6-22.9,40.7-36.9l5.7-4.9c12.4-10.6,24.8-21,34.5-28.9
		c2.5-2.1,3.5-3.4,4.1-7.3c2.8-19.3,3.6-53.8,1.9-79c-0.3-4.7-1.9-9.3-4.5-13.3c-6.1-9.1-13.5-17.7-24.6-28.7
		c-1.6-1.6-2.7-3.6-3.1-5.8C383.4,281.9,376.2,250.3,376.2,250.3L376.2,250.3z M165.9,290.3c1.5-0.5,3.2-0.6,4.8-0.2
		c7.1,1.7,22.1,5.4,33.4,8.3c1.6,0.4,3.6,1.9,4.4,3.3l0,0l2.5,4.1c0.9,1.4,0.9,3.2,0.2,4.7c-2.1,4-5,9.4-8.1,15l-2.4,4.2
		c-4.3,7.7-8.6,15.1-11.1,19c-1.6,2.6-2.5,3.7-5.4,4.7c-11.2,3.9-25,8.6-33.2,11.3c-1.7,0.5-2.3,1.6-1.9,3.4
		c0.6,3.4,2.5,15,3.2,18.3c0.3,1.2,1.3,2.2,3.1,1.9c4.9-0.9,17.8-4.1,17.8-4.1s-3.8,3.5-6.1,5.6c-0.4,0.4-0.9,0.7-1.4,0.9
		c-3.5,1.2-12.2,3.6-14.8,4.2c-2.1,0.5-3.4-0.4-4-2.7c0,0-3.7-15.7-5-21c-0.2-0.8-0.4-1.5-0.7-2.3c-1-3.1-3.4-9.1-4.7-12.3
		c-0.2-0.4-0.2-0.8-0.2-1.2c0-3.6,0.7-11.7,0.7-11.7s7.9,7.4,11.8,10.1c0.9,0.6,1.4,0.7,2.4,0.5c5.3-1.4,17.4-5.4,24.1-7.9
		c1.5-0.6,2.8-1.5,3.9-2.8c6.9-8.3,15.5-21.3,20.5-31c0.7-1.3,0.8-2.9,0.4-4.3l0,0l-1.1-3.5c-0.3-1-1.4-2.2-2.4-2.6
		c-11.7-4.5-21-7.8-31.8-11.5l0,0L165.9,290.3z M398,189.5c2.6-1,5.4-0.9,7.9,0.2c19.7,8.3,52.7,27.7,71.1,41.4
		c1.8,1.3,2.5,2.2,2.9,4.4c4.3,19.6,6,50,3.2,75.6c-0.2,1.8-0.6,2.9-1.5,4.9c-11.6,23.8-24.8,46.3-38.5,63.6l0,0l0-0.3
		c0.2-1.8,1.2-12.2,1.2-17.9c0-0.6,0.3-1.2,0.8-1.6c2.6-2,6.1-4.8,8.1-6.6c1-0.8,1.5-1.5,2-2.3c5.6-9.1,15.7-28.1,19.7-39.6
		c1-2.8,1.4-5.8,1.1-8.7c-1.3-16-3.8-38.1-7.5-52.5c-0.6-2.5-2.3-4.5-4.5-5.7c-3.2-1.7-9.5-4.5-23.9-10.3c-2-0.8-3.9-1.9-5.5-3.3
		c-9.4-7.9-24.1-19.8-33.3-26.6c-2.7-2-6.1-2.7-9.4-2c-6.7,1.5-15.2,3.6-20,4.9c-1.6,0.4-2.3,0.5-3.9,0.3c-0.9-0.1-2-0.2-3.2-0.3
		l-1.8-0.2c-2.1-0.2-4-0.3-4.8-0.4l-0.3,0C373.6,199.3,388.6,193,398,189.5z M190.1,318.5c-4.9,8-10.7,16.6-15.1,21.9
		c-0.6,0.7-1.3,1.2-2.2,1.6c-4.8,1.8-12.8,4.5-18.7,6.3l0,0L190.1,318.5z M125.6,308l-2.9,19.9l-9.8-11.5
		C114.8,312.5,120,308.8,125.6,308L125.6,308z M178.3,195.5l-2.7,3.3c-0.2,0.1-0.3,0.3-0.4,0.4c-2.4,1.7-12.2,9.3-14.9,11.5
		c-0.8,0.6-1.1,1.1-1.2,2.1c-0.6,3.4-1.6,9.7-1.9,13.3c-0.1,1-0.5,1.5-1.6,2c-4.6,1.9-10,3.8-14.4,5.6c-0.9,0.4-1.2,0.5-1.8,0.9
		c-0.4,0.3-6.3,5.6-6.3,5.6s12.7-3.1,17.4-4.2c1.1-0.2,1.6-0.2,2.6,0.3c1,0.4,2.6,1.1,3.4,1.4c1.3,0.5,2,0.5,3.4,0.1
		c5.3-1.2,14.1-3.3,18.8-4.5c2.4-0.6,3.8-1.3,5.8-2.7c2.3-1.6,8-5.8,8-5.8s-0.1,0.8-0.2,1.2c-0.1,0.4-0.2,0.6-0.4,0.8
		c-1.2,1.4-3.2,3.7-4.2,4.7c-2.3,2.4-3.7,3.2-6.6,4.5c-13.4,5.6-36.2,14.2-53.3,20.2c-1.1,0.4-1.6,0.7-2.4,1.6
		c-0.9,0.9-2.1,2.3-2.1,2.3s14,1,18.2,1.5c1.4,0.2,2.4,0.6,3.4,1.5c3.5,3,15.1,15,18.6,19.1c0,0-33,5.5-48.3,9.3
		c-1.9,0.5-2.8,1.7-3.3,3.2c-1.3,4.4-4.2,18.7-4.2,18.7s-1.1-0.3-2.5-1.2c-1-0.6-1.5-1.1-2.6-2.2c-3.6-3.8-9.6-11.1-12.4-15.4
		c-0.8-1.3-1.2-2.8-0.1-4.1c3.1-3.8,9.3-10.8,12.8-14.4c0.4-0.4,0.8-1.1,1.3-2c1.2-2.3,2.7-8.1,3.2-10.2l0.2-0.7l0,0l0-0.1
		c0,0,0,0-0.1,0.1l-0.6,0.4c-0.8,0.5-2.2,1.4-2.8,1.8c-0.9,0.6-1.1,0.8-1.5,1.6c-0.6,1.2-1.5,3-2.3,4.3c-0.2,0.4-0.9,1.1-1.2,1.3
		c-4.4,3.4-9.2,7-12.7,9.4c-0.2,0.2-0.5,0.1-0.7-0.1c-0.4-0.4-2.3-2.5-2.6-3c-0.3-0.4-0.4-0.8-0.4-1.3c0-0.9,0.1-2.4,0.2-3.5
		c0.1-1.4,0.5-2,2.1-3.7c1.8-1.9,3.8-3.9,6-6c5.2-4.4,18.2-15,41.5-31.6c0.4-0.3,0.8-0.7,1.2-1.1c2.4-3.3,9.4-12.3,11.1-14.5
		c0.2-0.3,0.5-0.6,0.8-0.8c2.7-2.2,4.1-3.1,6.9-4.9C158.7,207.1,171.3,199.6,178.3,195.5L178.3,195.5z M320.3,188.1
		c1-0.2,2,0,2.9,0.4l0,0l6.8,3.3c0.7,0.3,1.2,0.9,1.3,1.7c0.9,3.9,2.1,9.1,2.8,13.4c0.3,1.8,0,3.7-1,5.3
		c-2.8,4.9-8.6,13.7-11.8,18.4c-0.7,1.1-0.8,2.3-0.6,3.6c1.5,8.1,7.6,36.5,7.6,36.5l0,0l-3.9-3.5c-0.8-0.7-1.3-1.5-1.6-2.4
		c-2.7-8-7.9-24.8-10.2-32.9c-0.4-1.3-0.1-2.8,0.8-3.8c4-4.9,9.9-12.7,13.3-17.6c1-1.4,1.3-2.9,0.7-4.1c-0.8-1.6-2.1-4.1-3.4-6.3
		c-0.3-0.6-0.9-1.1-1.6-1.3l0,0l-4.6-1.5c-0.8-0.3-1.7-0.2-2.5,0c-10.1,3.7-23.6,8.9-31.9,12.4c-1.2,0.5-1.7,0.5-3.2,0.3
		c-2.4-0.4-9.4-1.6-12.8-2.2c-0.6-0.1-0.9-0.8-0.6-1.4l0,0l4.1-7c0.6-1,1.5-1.6,2.5-1.9C286.6,194.4,303.9,191,320.3,188.1z
		 M175.8,220.5c0.6-0.1,1.2,0.3,1.5,0.9c0.8,1.9,0.6,4-0.2,5.9c-0.3,0.7-1.3,1.5-2,1.6l0,0l-6.5,1.4c-0.4,0.1-0.8-0.2-0.7-0.6l0,0
		l0.6-7.7c0-0.5,0.5-0.9,1-1l0,0L175.8,220.5z M250,171.3c0.8,0,1.2,0.8,0.9,1.5l0,0l-15.9,27.4c-0.9,1.6-2.4,2.8-4.1,3.3l0,0
		l-29.8,9.3c-3.5,1-6.4,1.6-10,1.9c-6.6,0.5-26.2,1.1-26.2,1.1l0,0l0.4-0.9c0.2-0.4,0.6-0.8,1-1l0,0l9.3-3.9
		c0.7-0.3,1.3-0.7,1.8-1.3l0,0l14.3-17.7c0.8-0.9,1.8-1.8,2.8-2.4c9.5-5,26.3-12.5,38.1-16.4c1.1-0.4,2.6-0.6,3.8-0.6l0,0L250,171.3
		z M234,139.4c32.9-2.9,77.4-3.7,119.9-0.5c2.4,0.2,4.8,0.8,7,1.7c13.9,5.9,38.6,18.7,66.1,34.4c1.2,0.7,2.4,1.5,3.4,2.4
		c7.3,6.4,25.7,25.3,25.7,25.3l0,0l-5.8-1.1c-0.8-0.2-1.6-0.5-2.2-0.9c-11.6-7.8-28.6-18-42.9-25.2c-1.7-0.8-3.5-1.4-5.4-1.6
		c-6.9-0.7-16.3-1.4-22.4-1.6c-3-0.1-5.1-0.6-8-2.1c-5.6-2.9-19.3-9.1-26.1-11.7c-2.9-1.1-4.4-1.4-7.3-1.3c-11.7,0.2-38.4,1-52,1.9
		c-0.5,0-0.9,0-1.4-0.1l0,0l-6.5-1c18.4-3.2,63.9-7.2,82.7-8.2l0,0l-7.7-2.6c-1.5-0.5-3-0.8-4.6-0.8c-4.1-0.1-13.2-0.3-25-0.3l-4,0
		c-17.9,0-40.9,0.5-62.1,2.1c-1.9,0.1-3.7,0.6-5.4,1.3c-8.6,3.8-29.5,15.1-50.4,26.8l-4.7,2.6c-5.4,3-10.8,6-15.9,8.9
		c0,0,2.6-3.4,3.1-4c0.4-0.6,0.6-0.7,1.2-1.1c0.8-0.6,3.7-2.4,6.6-4.4l2.1-1.4c1.7-1.2,3.3-2.2,4.2-2.8c0.4-0.3,0.7-0.5,1.3-0.9
		c6.3-4.8,16.3-13.2,22.2-18.4c1.3-1.2,2.5-2.5,3.4-4.1c1.9-3.1,4-6.5,5.3-8.3C229.8,140.8,231.7,139.7,234,139.4z M94,63.8
		c8.1-0.8,12.7,2.3,12.7,10.6l0,0v4.6c0,8.4-4.5,11.8-12.7,12.7c-11.2,1.2-22.5,2.4-33.7,3.8l0,0v12.4c-2.4,0.3-4.7,0.6-7.1,0.9l0,0
		V68.5C66.8,66.8,80.4,65.2,94,63.8z M471,62.5c17.9,1.7,35.8,3.8,53.7,6l0,0V75c-7.7-1-15.5-1.9-23.2-2.8l0,0v33.7
		c-2.4-0.3-4.7-0.5-7.1-0.8l0,0V71.4c-7.8-0.9-15.6-1.7-23.4-2.4l0,0V62.5z M173.5,57.2v6.5c-14.7,0.9-29.5,2-44.2,3.2l0,0v9.9
		c13.1-1.1,26.2-2.1,39.3-2.9l0,0v6.5c-13.1,0.8-26.2,1.8-39.3,2.9l0,0v10.9c14.7-1.3,29.4-2.3,44.2-3.2l0,0v6.5
		c-17,1-34.1,2.3-51.1,3.8l0,0V61.1C139.4,59.5,156.4,58.3,173.5,57.2L173.5,57.2z M402.6,68.2c0-9,4.5-10.9,14.5-10.2
		c8.8,0.6,17.7,1.3,26.5,2c8.7,0.7,14.5,3.2,14.5,12.4l0,0v18c0,9-5,10.7-14.5,9.9c-8.8-0.7-17.7-1.4-26.5-2
		c-9.6-0.6-14.5-2.5-14.5-12.1l0,0V68.2z M334.1,54.2c17.1,0.4,34.1,1,51.2,1.9l0,0v6.5c-14.7-0.8-29.5-1.3-44.2-1.7l0,0v9.9
		c13.1,0.4,26.2,0.9,39.3,1.5l0,0v6.5c-13.1-0.6-26.2-1.1-39.3-1.5l0,0v10.9c14.8,0.4,29.5,1,44.2,1.8l0,0v6.5
		c-17.1-0.9-34.1-1.5-51.2-1.9l0,0V54.2z M245.3,54.2v29.1c0,9.2-4.8,11.2-14.6,11.5c-8.5,0.3-16.9,0.6-25.4,1
		c-9,0.4-14.5-1.3-14.5-10.4l0,0V56.2l0,0l6.9-0.4v30.3c0,1.8,1.6,3.3,3.7,3.2c11.1-0.5,22.2-0.9,33.3-1.3c2.1-0.1,3.5-1.7,3.5-3.5
		l0,0V54.3C240.6,54.3,243,54.2,245.3,54.2L245.3,54.2z M413.2,64.3c-2.1-0.1-3.7,1.3-3.7,3.4l0,0v19.9c0,1.8,1.6,3.8,3.7,3.9
		c11.5,0.8,22.9,1.6,34.4,2.6c1.8,0.2,3.7-1.5,3.7-3.4l0,0V70.8c0-2.1-1.8-3.8-3.7-4C436.1,65.9,424.7,65,413.2,64.3z M275.9,53.7
		c12.7-0.1,25.4,0,38.1,0.1l0,0v6.5c-13.6-0.2-27.2-0.2-40.8-0.1c-1.8,0-3.7,1.6-3.7,3.5l0,0v20.1c0,1.8,1.8,3.7,3.7,3.6
		c12.2-0.1,24.4-0.1,36.6,0.1l0,0V76.6c-7.1-0.1-14.1-0.1-21.2-0.1l0,0V70c9.4,0,18.8,0.1,28.1,0.2l0,0v23.8
		c-13.2-0.2-26.4-0.2-39.5-0.2c-9.6,0.1-14.6-1.6-14.6-11l0,0V65.4C262.7,56.7,267.1,53.8,275.9,53.7z M96.6,70.1l-0.5,0
		c-11.9,1.2-23.9,2.6-35.8,4l0,0v14.8c11.9-1.5,23.8-2.8,35.8-4c1.8-0.2,3.7-1.9,3.7-3.6l0,0v-8.1c0-1.8-1.8-3.2-3.7-3L96.6,70.1z"
		/>
</g>
</svg>
